<?xml version="1.0" encoding="iso-8859-1"?>
<!-- Uploaded to: SVG Repo, www.svgrepo.com, Generator: SVG Repo Mixer Tools -->
<!DOCTYPE svg PUBLIC "-//W3C//DTD SVG 1.1//EN" "http://www.w3.org/Graphics/SVG/1.1/DTD/svg11.dtd">
<svg fill="#b72c2c" height="800px" width="800px" version="1.1" id="Capa_1" xmlns="http://www.w3.org/2000/svg" xmlns:xlink="http://www.w3.org/1999/xlink" 
	 viewBox="0 0 217.205 217.205" xml:space="preserve">
<g>
	<path d="M167.631,101.102H49.574c-16.216,0-29.408-13.199-29.408-29.422c0-16.211,13.192-29.399,29.408-29.399h73.789
		c4.143,0,7.5-3.358,7.5-7.5c0-4.142-3.357-7.5-7.5-7.5H49.574c-24.486,0-44.408,19.917-44.408,44.399
		c0,24.494,19.922,44.422,44.408,44.422h118.057c16.216,0,29.408,13.199,29.408,29.423c0,16.211-13.192,29.399-29.408,29.399H93.205
		c-4.142,0-7.5,3.358-7.5,7.5s3.358,7.5,7.5,7.5h74.426c24.486,0,44.408-19.917,44.408-44.399
		C212.039,121.03,192.117,101.102,167.631,101.102z"/>
	<path d="M48.516,130.001c-17.407,0-31.568,14.162-31.568,31.568c0,26.865,25.192,52.367,26.265,53.439
		c1.407,1.407,3.314,2.197,5.304,2.197c1.989,0,3.897-0.79,5.304-2.197c1.072-1.073,26.263-26.574,26.263-53.439
		C80.082,144.163,65.922,130.001,48.516,130.001z M48.516,198.357c-6.477-7.995-16.568-22.713-16.568-36.788
		c0-9.136,7.433-16.568,16.568-16.568c9.135,0,16.566,7.433,16.566,16.568C65.082,175.644,54.991,190.362,48.516,198.357z"/>
	<path d="M168.053,87.202c1.919,0,3.838-0.732,5.302-2.195c1.073-1.072,26.278-26.573,26.278-53.44
		C199.633,14.161,185.466,0,168.053,0c-17.407,0-31.568,14.161-31.568,31.566c0,26.866,25.192,52.367,26.266,53.439
		C164.214,86.47,166.133,87.202,168.053,87.202z M168.053,15c9.143,0,16.58,7.432,16.58,16.566c0,14.076-10.1,28.796-16.579,36.79
		c-6.476-7.994-16.569-22.713-16.569-36.79C151.484,22.432,158.917,15,168.053,15z"/>
</g>
</svg>