<svg width="114" height="121" viewBox="0 0 114 121" fill="none" xmlns="http://www.w3.org/2000/svg">
<rect x="44" y="55" width="70" height="45" rx="8" fill="#E84949" fill-opacity="0.988235"/>
<rect x="44" y="55" width="70" height="45" rx="8" stroke="black"/>
<path d="M28.5 14.5C77.0002 13.5 -18 90.5 5.99999 117C23.5 128 21 83 44.5 77.3295H49.5H61.098H71.348" stroke="black" stroke-width="4"/>
<path d="M8.17355 17.7418C5.7971 16.6864 5.7971 13.3137 8.17355 12.2582L27.0323 3.88275C29.0161 3.00172 31.25 4.4539 31.25 6.62452L31.25 23.3755C31.25 25.5461 29.0161 26.9983 27.0323 26.1173L8.17355 17.7418Z" fill="#E84949" fill-opacity="0.988235"/>
<path d="M8.17355 17.7418C5.7971 16.6864 5.7971 13.3137 8.17355 12.2582L27.0323 3.88275C29.0161 3.00172 31.25 4.4539 31.25 6.62452L31.25 23.3755C31.25 25.5461 29.0161 26.9983 27.0323 26.1173L8.17355 17.7418Z" stroke="black"/>
<path d="M91.2176 78.3709L72.3588 86.7464C71.3669 87.1869 70.25 86.4608 70.25 85.3755V68.6245C70.25 67.5392 71.3669 66.8131 72.3588 67.2536L91.2176 75.6291C92.4058 76.1568 92.4058 77.8432 91.2176 78.3709Z" fill="black" stroke="black" stroke-width="3"/>
</svg>
